inDegrees=yes
name=IK-live
DataType=double
version=3
OpenSimVersion=4.1
endheader
time	pelvis_tilt	pelvis_list	pelvis_rotation	pelvis_tx	pelvis_ty	pelvis_tz	hip_flexion_r	hip_adduction_r	hip_rotation_r	knee_angle_r	ankle_angle_r	subtalar_angle_r	mtp_angle_r	hip_flexion_l	hip_adduction_l	hip_rotation_l	knee_angle_l	ankle_angle_l	subtalar_angle_l	mtp_angle_l	lumbar_extension	lumbar_bending	lumbar_rotation	neck_flex	neck_latbend	neck_rot	arm_flex_r	arm_add_r	arm_rot_r	elbow_flex_r	pro_sup_r	wrist_flex_r	wrist_dev_r	arm_flex_l	arm_add_l	arm_rot_l	elbow_flex_l	pro_sup_l	wrist_flex_l	wrist_dev_l
37.1108456	177.2246782511755	-17.54868684202105	-82.53393965023291	0.2341366603171506	0.04326292228651554	-1.326684523481465	-22.57117169827992	-1.591976316804377	-3.241458145969817	5.899560354604904	2.451982624139334	1.987972377786656	0	-24.74788768789517	-3.395140484746916	-11.58000132048591	9.793848132074926	-0.4439473045988533	4.250290820099795	0	-21.37711699760957	1.659277491615732	3.206407148933037	0	0	0	0.7849154674847484	-15.17648189448143	33.3052615839888	7.092131972846447	24.88995012009464	0	0.01961506749847208	5.875469848752655	-13.22999908141624	43.88973871346435	6.909098606308556	33.48786655738587	0	0.01961506749847208
37.4986769	-175.5895810199773	16.15467347800058	-77.54756886180793	0.2341366603171506	0.04326292228651554	-1.326684523481465	-22.57117169827992	-1.591976316804377	-3.241458145969817	5.899560354604904	2.451982624139334	1.987972377786656	0	-24.74788768789517	-3.395140484746916	-11.58000132048591	9.793848132074926	-0.4439473045988533	4.250290820099795	0	-21.37711699760957	1.659277491615732	3.206407148933037	0	0	0	0.7778342255673097	-15.17651290789978	33.31447377684282	6.965695011198346	24.86616393262058	0	0.008750839642484822	5.869024414852223	-13.22968794956012	43.90347178147368	6.779171107658162	33.47618119326603	0	0.008750839642484822
38.1982434	0.4539573435428452	-12.2017509170676	-43.37047428759903	0.2341366603171506	0.04326292228651554	-1.326684523481465	-22.57117169827992	-1.591976316804377	-3.241458145969817	5.899560354604904	2.451982624139334	1.987972377786656	0	-24.74788768789517	-3.395140484746916	-11.58000132048591	9.793848132074926	-0.4439473045988533	4.250290820099795	0	-21.37711699760957	1.659277491615732	3.206407148933037	0	0	0	0.7760316555033975	-15.17652078501659	33.31680654147392	6.93461192420302	24.86020435349856	0	0.00603998075515398	5.867383240124505	-13.2296089251955	43.90694452822388	6.747246437210407	33.47324620982432	0	0.00603998075515398
38.8248584	4.099479634869462	8.437222247809848	-268.5217179326702	0.2341366603171506	0.04326292228651554	-1.326684523481465	-22.57117169827992	-1.591976316804377	-3.241458145969817	5.899560354604904	2.451982624139334	1.987972377786656	0	-24.74788768789517	-3.395140484746916	-11.58000132048591	9.793848132074926	-0.4439473045988533	4.250290820099795	0	-21.37711699760957	1.659277491615732	3.206407148933037	0	0	0	0.7774467645077479	-15.17651459915391	33.31497376843916	6.959287477475192	24.86489591304051	0	0.008175783570736761	5.868671594159428	-13.22967098268072	43.90421546092012	6.772600398460513	33.47555541950562	0	0.008175783570736761
39.7112769	17.59784516265729	-5.981424253457132	-3.416025769513214	0.2341366603171506	0.04326292228651554	-1.326684523481465	-22.57117169827992	-1.591976316804377	-3.241458145969817	5.899560354604904	2.451982624139334	1.987972377786656	0	-24.74788768789517	-3.395140484746916	-11.58000132048591	9.793848132074926	-0.4439473045988533	4.250290820099795	0	-21.37711699760957	1.659277491615732	3.206407148933037	0	0	0	0.7814354542780816	-15.17649714661611	33.30979656466386	7.029223585106884	24.87819733791359	0	0.01423911283475108	5.872302573246943	-13.22984606929529	43.89650238368827	6.844440907150627	33.48209786096889	0	0.01423911283475108
40.2239892	-38.21228790978912	20.83234360571948	10.90559190864835	0.2341366603171506	0.04326292228651554	-1.326684523481465	-22.57117169827992	-1.591976316804377	-3.241458145969817	5.899560354604904	2.451982624139334	1.987972377786656	0	-24.74788768789517	-3.395140484746916	-11.58000132048591	9.793848132074926	-0.4439473045988533	4.250290820099795	0	-21.37711699760957	1.659277491615732	3.206407148933037	0	0	0	0.7833655101471425	-15.17648869094835	33.30728395440082	7.063476155607893	24.88469224315282	0	0.01720725077389365	5.874059277476254	-13.22993089800978	43.89275616370919	6.879617897469322	33.48528833508418	0	0.01720725077389365
41.1103957	-78.46173675651882	25.60168869818352	15.5271397415107	0.2341366603171506	0.04326292228651554	-1.326684523481465	-22.57117169827992	-1.591976316804377	-3.241458145969817	5.899560354604904	2.451982624139334	1.987972377786656	0	-24.74788768789517	-3.395140484746916	-11.58000132048591	9.793848132074926	-0.4439473045988533	4.250290820099795	0	-21.37711699760957	1.659277491615732	3.206407148933037	0	0	0	0.787559305221634	-15.17647031632361	33.30182378168577	7.136894414877514	24.89880139305485	0	0.02365448242588567	5.877876389884857	-13.23011523541096	43.8846154455021	6.954952116909553	33.49222131548625	0	0.02365448242588567
42.4365536	95.9166497545346	-41.90814356697372	25.91070222421836	0.2341366603171506	0.04326292228651554	-1.326684523481465	-22.57117169827992	-1.591976316804377	-3.241458145969817	5.899560354604904	2.451982624139334	1.987972377786656	0	-24.74788768789517	-3.395140484746916	-11.58000132048591	9.793848132074926	-0.4439473045988533	4.250290820099795	0	-21.37711699760957	1.659277491615732	3.206407148933037	0	0	0	0.7845485502133354	-15.17648345400677	33.30570389289257	7.090620283774774	24.88903241460505	0	0.01923914240560468	5.875134680098905	-13.22998343657226	43.89038268295124	6.907678573132014	33.48738709978295	0	0.01923914240560468
43.1741545	26.55262511568768	-5.868598265615072	-10.87240177781718	0.2341366603171506	0.04326292228651554	-1.326684523481465	-22.57117169827992	-1.591976316804377	-3.241458145969817	5.899560354604904	2.451982624139334	1.987972377786656	0	-24.74788768789517	-3.395140484746916	-11.58000132048591	9.793848132074926	-0.4439473045988533	4.250290820099795	0	-21.37711699760957	1.659277491615732	3.206407148933037	0	0	0	0.7833984353261679	-15.17648856290282	33.30725239608443	7.063306798263049	24.88471450651742	0	0.01720652555411357	5.874089649816153	-13.22993218240035	43.89271351389566	6.879447479371398	33.48530562331731	0	0.01720652555411357
43.535916	18.50665171765564	-24.096938783951	-78.74480455337614	0.2341366603171506	0.04326292228651554	-1.326684523481465	-22.57117169827992	-1.591976316804377	-3.241458145969817	5.899560354604904	2.451982624139334	1.987972377786656	0	-24.74788768789517	-3.395140484746916	-11.58000132048591	9.793848132074926	-0.4439473045988533	4.250290820099795	0	-21.37711699760957	1.659277491615732	3.206407148933037	0	0	0	0.7730386595248567	-15.17653389627819	33.32070125419067	6.881489636246807	24.85016725726542	0	0.001461880917182521	5.864659109200947	-13.22947739077709	43.91275014215808	6.692660694940111	33.46831241781641	0	0.001461880917182521
43.9486749	-19.11403265847698	-1.275747289532692	-126.5850973253762	0.2341366603171506	0.04326292228651554	-1.326684523481465	-22.57117169827992	-1.591976316804377	-3.241458145969817	5.899560354604904	2.451982624139334	1.987972377786656	0	-24.74788768789517	-3.395140484746916	-11.58000132048591	9.793848132074926	-0.4439473045988533	4.250290820099795	0	-21.37711699760957	1.659277491615732	3.206407148933037	0	0	0	0.7729928204180989	-15.17653409239449	33.32075784493444	6.880855691262796	24.85003224155792	0	0.001401634420833433	5.864617256043252	-13.22947542335706	43.912833472789	6.692011899771081	33.46824498515001	0	0.001401634420833433
44.6752392	-16.9269290798113	14.20211511845767	-249.3801081233221	0.2341366603171506	0.04326292228651554	-1.326684523481465	-22.57117169827992	-1.591976316804377	-3.241458145969817	5.899560354604904	2.451982624139334	1.987972377786656	0	-24.74788768789517	-3.395140484746916	-11.58000132048591	9.793848132074926	-0.4439473045988533	4.250290820099795	0	-21.37711699760957	1.659277491615732	3.206407148933037	0	0	0	0.7827483886250093	-15.176491400947	33.30809158492593	7.052786431995378	24.88258550855047	0	0.01624064395897113	5.873497724685062	-13.2299037107717	43.89396175862989	6.868675404923402	33.48425461232098	0	0.01624064395897113
45.1098836	-15.36099154134328	-0.6220939739572399	-217.1320658051994	0.2341366603171506	0.04326292228651554	-1.326684523481465	-22.57117169827992	-1.591976316804377	-3.241458145969817	5.899560354604904	2.451982624139334	1.987972377786656	0	-24.74788768789517	-3.395140484746916	-11.58000132048591	9.793848132074926	-0.4439473045988533	4.250290820099795	0	-21.37711699760957	1.659277491615732	3.206407148933037	0	0	0	0.7832516654662399	-15.17648919806178	33.3074380903531	7.061172073222389	24.88425969943681	0	0.01700270528333875	5.873955851709441	-13.22992581046669	43.89298834980354	6.8772643036763	33.48507937359302	0	0.01700270528333875
45.4377209	-10.42319675447209	0.2654775374965695	-250.3485845236679	0.2341366603171506	0.04326292228651554	-1.326684523481465	-22.57117169827992	-1.591976316804377	-3.241458145969817	5.899560354604904	2.451982624139334	1.987972377786656	0	-24.74788768789517	-3.395140484746916	-11.58000132048591	9.793848132074926	-0.4439473045988533	4.250290820099795	0	-21.37711699760957	1.659277491615732	3.206407148933037	0	0	0	0.7833173520798001	-15.17648890905257	33.3073517293816	7.062416489488558	24.88448696712419	0	0.01710720710325415	5.874015605420253	-13.22992870987099	43.89285926547026	6.8785440331331	33.48519055331672	0	0.01710720710325415
45.7505994	7.687282748132601	11.39068937704726	35.09987965751441	0.2341366603171506	0.04326292228651554	-1.326684523481465	-22.57117169827992	-1.591976316804377	-3.241458145969817	5.899560354604904	2.451982624139334	1.987972377786656	0	-24.74788768789517	-3.395140484746916	-11.58000132048591	9.793848132074926	-0.4439473045988533	4.250290820099795	0	-21.37711699760957	1.659277491615732	3.206407148933037	0	0	0	0.7801643252288751	-15.17650271171964	33.31144864606285	7.007060068515943	24.87394264036759	0	0.01229760468104485	5.87114551273508	-13.22979023926436	43.89896443922724	6.821691635679645	33.48000579728468	0	0.01229760468104485
